<?xml version="1.0" standalone="no"?>
<svg viewBox="0 0 200 200" xmlns="http://www.w3.org/2000/svg">
  <path fill="#FF4948" d="M45.8,-77.5C58.3,-72.1,66.6,-57.7,72.5,-43.3C78.4,-28.8,81.8,-14.4,83,0.7C84.1,15.8,83,31.5,76,44C68.9,56.4,56,65.6,42.4,72.2C28.8,78.8,14.4,82.9,-0.1,83C-14.5,83.1,-29,79.3,-41.8,72.1C-54.5,65,-65.5,54.6,-71.4,42C-77.2,29.4,-78,14.7,-76.7,0.8C-75.3,-13.2,-71.9,-26.3,-66.1,-39C-60.2,-51.6,-52,-63.7,-40.6,-69.8C-29.2,-75.8,-14.6,-75.8,1,-77.6C16.6,-79.3,33.3,-82.9,45.8,-77.5Z" transform="translate(100 100)" />
</svg>
