<svg enable-background="new 0 0 32 32" height="512" viewBox="0 0 32 32" width="512" xmlns="http://www.w3.org/2000/svg"><g id="BG"><path d="m26 32h-20c-3.314 0-6-2.686-6-6v-20c0-3.314 2.686-6 6-6h20c3.314 0 6 2.686 6 6v20c0 3.314-2.686 6-6 6z" fill="#ffe6e2"/></g><g id="Layer_3"><g><g><path d="m12.667 18.333v-9.6c0-.405-.329-.733-.734-.733h-3.2c-.405 0-.733.328-.733.733v14.533c0 .406.328.734.733.734h3.2c.405 0 .733-.328.733-.733v-3.933-1.001z" fill="#fc573b"/></g><g><path d="m14.4 24h8.867c.405 0 .733-.328.733-.733v-3.2c0-.405-.328-.733-.733-.733h-8.867c-.405 0-.733.328-.733.733v3.2c0 .405.328.733.733.733z" fill="#fd907e"/></g><g><path d="m23.267 8h-8.867c-.405 0-.733.328-.733.733v8.867c0 .405.328.733.733.733h8.867c.405 0 .733-.328.733-.733v-8.867c0-.405-.328-.733-.733-.733z" fill="#fc573b"/></g></g></g></svg>